<?xml version="1.0" encoding="UTF-8"?>
<svg xmlns="http://www.w3.org/2000/svg" xmlns:xlink="http://www.w3.org/1999/xlink" id="Layer_1" data-name="Layer 1" version="1.1" viewBox="0 0 666.6 175.7">
  <defs>
    <style>
      .cls-1 {
        fill: #1f285a;
      }

      .cls-1, .cls-2, .cls-3, .cls-4, .cls-5, .cls-6, .cls-7, .cls-8, .cls-9, .cls-10, .cls-11, .cls-12, .cls-13, .cls-14, .cls-15, .cls-16, .cls-17, .cls-18, .cls-19, .cls-20, .cls-21, .cls-22, .cls-23, .cls-24, .cls-25, .cls-26, .cls-27, .cls-28, .cls-29, .cls-30, .cls-31 {
        stroke-width: 0px;
      }

      .cls-2 {
        fill: url(#linear-gradient);
      }

      .cls-3 {
        fill: url(#linear-gradient-29);
      }

      .cls-4 {
        fill: url(#linear-gradient-30);
      }

      .cls-5 {
        fill: url(#linear-gradient-28);
      }

      .cls-6 {
        fill: url(#linear-gradient-25);
      }

      .cls-7 {
        fill: url(#linear-gradient-11);
      }

      .cls-8 {
        fill: url(#linear-gradient-12);
      }

      .cls-9 {
        fill: url(#linear-gradient-13);
      }

      .cls-10 {
        fill: url(#linear-gradient-10);
      }

      .cls-11 {
        fill: url(#linear-gradient-17);
      }

      .cls-12 {
        fill: url(#linear-gradient-16);
      }

      .cls-13 {
        fill: url(#linear-gradient-19);
      }

      .cls-14 {
        fill: url(#linear-gradient-15);
      }

      .cls-15 {
        fill: url(#linear-gradient-23);
      }

      .cls-16 {
        fill: url(#linear-gradient-21);
      }

      .cls-17 {
        fill: url(#linear-gradient-18);
      }

      .cls-18 {
        fill: url(#linear-gradient-14);
      }

      .cls-19 {
        fill: url(#linear-gradient-22);
      }

      .cls-20 {
        fill: url(#linear-gradient-20);
      }

      .cls-21 {
        fill: url(#linear-gradient-27);
      }

      .cls-22 {
        fill: url(#linear-gradient-24);
      }

      .cls-23 {
        fill: url(#linear-gradient-26);
      }

      .cls-24 {
        fill: url(#linear-gradient-4);
      }

      .cls-25 {
        fill: url(#linear-gradient-2);
      }

      .cls-26 {
        fill: url(#linear-gradient-3);
      }

      .cls-27 {
        fill: url(#linear-gradient-8);
      }

      .cls-28 {
        fill: url(#linear-gradient-9);
      }

      .cls-29 {
        fill: url(#linear-gradient-7);
      }

      .cls-30 {
        fill: url(#linear-gradient-5);
      }

      .cls-31 {
        fill: url(#linear-gradient-6);
      }
    </style>
    <linearGradient id="linear-gradient" x1="-5030" y1="-451" x2="-4888.3" y2="-451" gradientTransform="translate(3941.9 -3102.3) rotate(-45)" gradientUnits="userSpaceOnUse">
      <stop offset="0" stop-color="#0066af"></stop>
      <stop offset="1" stop-color="#d32e44"></stop>
    </linearGradient>
    <linearGradient id="linear-gradient-2" x1="-5030" y1="-477" x2="-4888.3" y2="-477" xlink:href="#linear-gradient"></linearGradient>
    <linearGradient id="linear-gradient-3" x1="-5030" y1="-453.3" x2="-4888.3" y2="-453.3" xlink:href="#linear-gradient"></linearGradient>
    <linearGradient id="linear-gradient-4" x1="-5030" y1="-500.1" x2="-4888.3" y2="-500.1" xlink:href="#linear-gradient"></linearGradient>
    <linearGradient id="linear-gradient-5" x1="-5030" y1="-500.1" x2="-4888.3" y2="-500.1" xlink:href="#linear-gradient"></linearGradient>
    <linearGradient id="linear-gradient-6" x1="-5030" y1="-475.6" x2="-4888.3" y2="-475.6" xlink:href="#linear-gradient"></linearGradient>
    <linearGradient id="linear-gradient-7" x1="-5030" y1="-451" x2="-4888.3" y2="-451" xlink:href="#linear-gradient"></linearGradient>
    <linearGradient id="linear-gradient-8" x1="-5030" y1="-500.1" x2="-4888.3" y2="-500.1" xlink:href="#linear-gradient"></linearGradient>
    <linearGradient id="linear-gradient-9" x1="-5030" y1="-397.3" x2="-4888.3" y2="-397.3" xlink:href="#linear-gradient"></linearGradient>
    <linearGradient id="linear-gradient-10" x1="-5030" y1="-426.5" x2="-4888.3" y2="-426.5" xlink:href="#linear-gradient"></linearGradient>
    <linearGradient id="linear-gradient-11" x1="-5030" y1="-423.9" x2="-4888.3" y2="-423.9" xlink:href="#linear-gradient"></linearGradient>
    <linearGradient id="linear-gradient-12" x1="-5030" y1="-397.3" x2="-4888.3" y2="-397.3" xlink:href="#linear-gradient"></linearGradient>
    <linearGradient id="linear-gradient-13" x1="-5030" y1="-400.4" x2="-4888.3" y2="-400.4" xlink:href="#linear-gradient"></linearGradient>
    <linearGradient id="linear-gradient-14" x1="-5030" y1="-452" x2="-4888.3" y2="-452" xlink:href="#linear-gradient"></linearGradient>
    <linearGradient id="linear-gradient-15" x1="-5030" y1="-452.9" x2="-4888.3" y2="-452.9" xlink:href="#linear-gradient"></linearGradient>
    <linearGradient id="linear-gradient-16" x1="-5061.5" y1="-494.2" x2="-4919.8" y2="-494.2" xlink:href="#linear-gradient"></linearGradient>
    <linearGradient id="linear-gradient-17" x1="-5061.5" y1="-469.7" x2="-4919.8" y2="-469.7" xlink:href="#linear-gradient"></linearGradient>
    <linearGradient id="linear-gradient-18" x1="-5061.5" y1="-467.4" x2="-4919.8" y2="-467.4" xlink:href="#linear-gradient"></linearGradient>
    <linearGradient id="linear-gradient-19" x1="-5061.5" y1="-444.7" x2="-4919.8" y2="-444.7" xlink:href="#linear-gradient"></linearGradient>
    <linearGradient id="linear-gradient-20" x1="-5061.5" y1="-494.2" x2="-4919.8" y2="-494.2" xlink:href="#linear-gradient"></linearGradient>
    <linearGradient id="linear-gradient-21" x1="-5061.5" y1="-518.7" x2="-4919.8" y2="-518.7" xlink:href="#linear-gradient"></linearGradient>
    <linearGradient id="linear-gradient-22" x1="-5061.5" y1="-469.7" x2="-4919.8" y2="-469.7" xlink:href="#linear-gradient"></linearGradient>
    <linearGradient id="linear-gradient-23" x1="-5061.5" y1="-518.7" x2="-4919.8" y2="-518.7" xlink:href="#linear-gradient"></linearGradient>
    <linearGradient id="linear-gradient-24" x1="-5061.5" y1="-518.7" x2="-4919.8" y2="-518.7" xlink:href="#linear-gradient"></linearGradient>
    <linearGradient id="linear-gradient-25" x1="-5061.5" y1="-416" x2="-4919.8" y2="-416" xlink:href="#linear-gradient"></linearGradient>
    <linearGradient id="linear-gradient-26" x1="-5061.5" y1="-470.7" x2="-4919.8" y2="-470.7" xlink:href="#linear-gradient"></linearGradient>
    <linearGradient id="linear-gradient-27" x1="-5061.5" y1="-416" x2="-4919.8" y2="-416" xlink:href="#linear-gradient"></linearGradient>
    <linearGradient id="linear-gradient-28" x1="-5061.5" y1="-443.8" x2="-4919.8" y2="-443.8" xlink:href="#linear-gradient"></linearGradient>
    <linearGradient id="linear-gradient-29" x1="-5061.5" y1="-469.2" x2="-4919.8" y2="-469.2" xlink:href="#linear-gradient"></linearGradient>
    <linearGradient id="linear-gradient-30" x1="-5061.5" y1="-419" x2="-4919.8" y2="-419" xlink:href="#linear-gradient"></linearGradient>
  </defs>
  <g>
    <path class="cls-1" d="M210.8,46.2v-15.3h2.9l6.5,10.8h-1.5l6.4-10.8h2.9v15.3h-3.3v-10.2s.6,0,.6,0l-5.1,8.6h-1.6l-5.2-8.6h.7v10.2h-3.3Z"></path>
    <path class="cls-1" d="M243.4,46.5c-1.2,0-2.3-.2-3.3-.6-1-.4-1.9-.9-2.7-1.7-.8-.7-1.3-1.5-1.8-2.5-.4-1-.6-2-.6-3.1s.2-2.2.6-3.2c.4-1,1-1.8,1.8-2.5.8-.7,1.6-1.3,2.7-1.7,1-.4,2.1-.6,3.3-.6s2.3.2,3.3.6c1,.4,1.9.9,2.7,1.6.8.7,1.3,1.5,1.8,2.5.4,1,.6,2,.6,3.2s-.2,2.2-.6,3.2c-.4,1-1,1.8-1.8,2.5s-1.6,1.3-2.7,1.6-2.1.6-3.3.6ZM243.3,43.5c.7,0,1.3-.1,1.9-.4.6-.2,1.1-.6,1.5-1,.4-.4.8-1,1-1.5.2-.6.4-1.2.4-2s-.1-1.4-.4-2c-.2-.6-.6-1.1-1-1.5-.4-.4-.9-.8-1.5-1-.6-.2-1.2-.4-1.9-.4s-1.3.1-1.9.4c-.6.2-1.1.6-1.5,1s-.8,1-1,1.5-.4,1.2-.4,2,.1,1.4.4,2,.6,1.1,1,1.5.9.8,1.5,1c.6.2,1.2.4,1.9.4Z"></path>
    <path class="cls-1" d="M258.7,46.2v-15.3h6.6c1.4,0,2.5.2,3.5.7s1.8,1.1,2.3,1.9.8,1.8.8,2.9-.3,2.1-.8,3c-.5.8-1.3,1.4-2.3,1.9s-2.2.6-3.5.6h-4.7l1.6-1.5v5.8h-3.6ZM262.3,40.8l-1.6-1.7h4.5c1.1,0,1.9-.2,2.4-.7.6-.5.8-1.1.8-2s-.3-1.5-.8-2c-.6-.5-1.4-.7-2.4-.7h-4.5l1.6-1.7v8.7ZM268.5,46.2l-3.8-5.5h3.8l3.8,5.5h-3.8Z"></path>
    <path class="cls-1" d="M282.1,46.2v-12.4h-4.9v-2.9h13.3v2.9h-4.9v12.4h-3.5Z"></path>
    <path class="cls-1" d="M296.8,46.2v-15.3h3.6v15.3h-3.6Z"></path>
    <path class="cls-1" d="M308.3,46.2v-15.3h2.9l6.5,10.8h-1.5l6.4-10.8h2.9v15.3h-3.3v-10.2s.6,0,.6,0l-5.1,8.6h-1.6l-5.2-8.6h.7v10.2h-3.3Z"></path>
    <path class="cls-1" d="M337,43.4h8.3v2.8h-11.8v-15.3h11.5v2.8h-8v9.6ZM336.7,37.1h7.4v2.8h-7.4v-2.8Z"></path>
    <path class="cls-1" d="M352.5,46.2v-15.3h6.6c1.4,0,2.5.2,3.5.7s1.8,1.1,2.3,1.9.8,1.8.8,2.9-.3,2.1-.8,3c-.5.8-1.3,1.4-2.3,1.9s-2.2.6-3.5.6h-4.7l1.6-1.5v5.8h-3.6ZM356,40.8l-1.6-1.7h4.5c1.1,0,1.9-.2,2.4-.7.6-.5.8-1.1.8-2s-.3-1.5-.8-2c-.6-.5-1.4-.7-2.4-.7h-4.5l1.6-1.7v8.7ZM362.2,46.2l-3.8-5.5h3.8l3.8,5.5h-3.8Z"></path>
    <path class="cls-1" d="M383.4,46.2v-15.3h7.5c1.9,0,3.4.4,4.3,1.1,1,.7,1.5,1.7,1.5,2.9s-.2,1.5-.6,2.1c-.4.6-.9,1-1.6,1.4-.7.3-1.5.5-2.3.5l.4-.9c1,0,1.8.2,2.5.5.7.3,1.3.8,1.7,1.4s.6,1.4.6,2.2c0,1.3-.5,2.3-1.5,3.1-1,.7-2.6,1.1-4.6,1.1h-7.9ZM386.9,43.6h4.1c.9,0,1.6-.2,2.1-.5.5-.3.7-.8.7-1.4s-.2-1.1-.7-1.4c-.5-.3-1.2-.5-2.1-.5h-4.4v-2.6h3.8c.9,0,1.5-.1,2-.4.5-.3.7-.8.7-1.4s-.2-1.1-.7-1.4c-.5-.3-1.1-.4-2-.4h-3.5v9.9Z"></path>
    <path class="cls-1" d="M405.6,46.4c-.6,0-1.1-.2-1.5-.6-.4-.4-.6-.9-.6-1.5s.2-1.2.6-1.5c.4-.4.9-.6,1.5-.6s1.1.2,1.5.6c.4.4.6.9.6,1.5s-.2,1.1-.6,1.5c-.4.4-.9.6-1.5.6Z"></path>
  </g>
  <g>
    <path class="cls-2" d="M76.8,123.6c-1.4-1.4-4.1-2.1-6-1.6l-1.9.5c-1.9.5-3.9,2.5-4.4,4.4l-.5,1.9c-.5,1.9.2,4.6,1.6,6l1.4,1.4c1.4,1.4,4.1,2.1,6,1.6l1.9-.5c1.9-.5,3.9-2.5,4.4-4.4l.5-1.9c.5-1.9-.2-4.6-1.6-6l-1.4-1.4Z"></path>
    <path class="cls-25" d="M85.9,88c1.6-.6,3.1-1.1,4.8-2.4s1.9-2.9,1.9-2.9c0,0,.2-.9,1.1-1.3s1.5-.3,2.7,0c.2,0,.3.1.5.2v-.3c.6-1.9-.1-4.6-1.5-6l-3.6-3.6c-1.4-1.4-4.1-2.1-6-1.6l-4.9,1.3c-1.9.5-3.9,2.5-4.4,4.4l-1.3,4.9c-.5,1.9.2,4.6,1.6,6l3.6,3.6c1.4,1.4,4.1,2.1,6,1.6l1-.3c-.3-.3-.6-.5-1-.8-1.5-.9-1.9-2.4-.3-3Z"></path>
    <path class="cls-26" d="M108.2,83.4c-.3,1.4-.3,2.4.4,4s3.1,2.1,3.2,3c0,.7-.2,1.1-1.4,1.7,1.4.7,3.2,1,4.6.6l1.9-.5c1.9-.5,3.9-2.5,4.4-4.4l.5-1.9c.5-1.9-.2-4.6-1.6-6l-1.4-1.4c-1.4-1.4-4.1-2.1-6-1.6l-1.9.5c-1.9.5-3.9,2.5-4.4,4.4h0c1.3,0,2,.7,1.8,1.8Z"></path>
    <path class="cls-24" d="M62.3,71.5l-1.4-1.4c-1.4-1.4-4.1-2.1-6-1.6l-1.9.5c-1.9.5-3.9,2.5-4.4,4.4l-.5,1.9c-.5,1.9.2,4.6,1.6,6l1.4,1.4c1.4,1.4,4.1,2.1,6,1.6l1.9-.5c1.9-.5,3.9-2.5,4.4-4.4l.5-1.9c.5-1.9-.2-4.6-1.6-6Z"></path>
    <path class="cls-30" d="M82.7,56.3c1.7-.4,3.4-2.2,3.8-3.8s-.2-4-1.4-5.2c-1.2-1.2-3.6-1.8-5.2-1.4s-3.4,2.2-3.8,3.8.2,4,1.4,5.2c1.2,1.2,3.6,1.8,5.2,1.4Z"></path>
    <path class="cls-31" d="M111,44.8l-4.9,1.3c-1.9.5-3.9,2.5-4.4,4.4l-1.3,4.9c-.5,1.9.2,4.6,1.6,6l3.6,3.6c1.4,1.4,4.1,2.1,6,1.6l4.9-1.3c1.9-.5,3.9-2.5,4.4-4.4l1.3-4.9c.5-1.9-.2-4.6-1.6-6l-3.6-3.6c-1.4-1.4-4.1-2.1-6-1.6Z"></path>
    <path class="cls-29" d="M132.3,73c1.4,1.4,4.1,2.1,6,1.6l4.9-1.3c1.9-.5,3.9-2.5,4.4-4.4l1.3-4.9c.5-1.9-.2-4.6-1.6-6l-3.6-3.6c-1.4-1.4-4.1-2.1-6-1.6l-4.9,1.3c-1.9.5-3.9,2.5-4.4,4.4l-1.3,4.9c-.5,1.9.2,4.6,1.6,6l3.6,3.6Z"></path>
    <path class="cls-27" d="M100.2,33.5c1.4,1.4,4.1,2.1,6,1.6l1.9-.5c1.9-.5,3.9-2.5,4.4-4.4l.5-1.9c.5-1.9-.2-4.6-1.6-6l-1.4-1.4c-1.4-1.4-4.1-2.1-6-1.6l-1.9.5c-1.9.5-3.9,2.5-4.4,4.4l-.5,1.9c-.5,1.9.2,4.6,1.6,6l1.4,1.4Z"></path>
    <path class="cls-28" d="M135,141.3c-1.4-1.4-4.1-2.1-6-1.6l-1.9.5c-1.9.5-3.9,2.5-4.4,4.4l-.5,1.9c-.5,1.9.2,4.6,1.6,6l1.4,1.4c1.4,1.4,4.1,2.1,6,1.6l1.9-.5c1.9-.5,3.9-2.5,4.4-4.4l.5-1.9c.5-1.9-.2-4.6-1.6-6l-1.4-1.4Z"></path>
    <path class="cls-10" d="M155.6,95.7l1.3-4.9c.5-1.9-.2-4.6-1.6-6l-3.6-3.6c-1.4-1.4-4.1-2.1-6-1.6l-4.9,1.3c-1.9.5-3.9,2.5-4.4,4.4l-1.3,4.9c-.5,1.9.2,4.6,1.6,6l3.6,3.6c1.4,1.4,4.1,2.1,6,1.6l4.9-1.3c1.9-.5,3.9-2.5,4.4-4.4Z"></path>
    <path class="cls-7" d="M127.7,127.2c1.9-.5,3.9-2.5,4.4-4.4l1.3-4.9c.5-1.9-.2-4.6-1.6-6l-3.6-3.6c-1.4-1.4-4.1-2.1-6-1.6l-4.9,1.3c-1.9.5-3.9,2.5-4.4,4.4l-1.3,4.9c-.5,1.9.2,4.6,1.6,6l3.6,3.6c1.4,1.4,4.1,2.1,6,1.6l4.9-1.3Z"></path>
    <path class="cls-8" d="M152.6,118.5c-1.7.4-3.4,2.2-3.8,3.8-.4,1.7.2,4,1.4,5.2,1.2,1.2,3.6,1.8,5.2,1.4s3.4-2.2,3.8-3.8c.4-1.7-.2-4-1.4-5.2-1.2-1.2-3.6-1.8-5.2-1.4Z"></path>
    <path class="cls-9" d="M186,88.8l-1.4-1.4c-1.4-1.4-4.1-2.1-6-1.6l-1.9.5c-1.9.5-3.9,2.5-4.4,4.4l-.5,1.9c-.5,1.9.2,4.6,1.6,6l1.4,1.4c1.4,1.4,4.1,2.1,6,1.6l1.9-.5c1.9-.5,3.9-2.5,4.4-4.4l.5-1.9c.5-1.9-.2-4.6-1.6-6Z"></path>
    <path class="cls-18" d="M165,33.9c-1.4-1.4-4.1-2.1-6-1.6l-1.9.5c-1.9.5-3.9,2.5-4.4,4.4l-.5,1.9c-.5,1.9.2,4.6,1.6,6l1.4,1.4c1.4,1.4,4.1,2.1,6,1.6l1.9-.5c1.9-.5,3.9-2.5,4.4-4.4l.5-1.9c.5-1.9-.2-4.6-1.6-6l-1.4-1.4Z"></path>
    <path class="cls-14" d="M98.6,97.7c-2.2-.7-4.7-.6-6.1,0-1.5.5-2.7.7-3.6,0-.5-.4-.5-1.1-.4-1.9-1.9.5-3.8,2.5-4.3,4.4l-1.3,4.9c-.5,1.9.2,4.6,1.6,6l3.6,3.6c1.4,1.4,4.1,2.1,6,1.6l4.9-1.3c1.9-.5,3.9-2.5,4.4-4.4l1.3-4.9c.5-1.9-.2-4.6-1.6-6l-1-1c-1.1.2-2.1-.5-3.5-.9Z"></path>
  </g>
  <g>
    <path class="cls-12" d="M76.1,75.8l4.9-1.3c1.9-.5,3.9-2.5,4.4-4.4l1.3-4.9c.5-1.9-.2-4.6-1.6-6l-3.6-3.6c-1.4-1.4-4.1-2.1-6-1.6l-4.9,1.3c-1.9.5-3.9,2.5-4.4,4.4l-1.3,4.9c-.5,1.9.2,4.6,1.6,6l3.6,3.6c1.4,1.4,4.1,2.1,6,1.6Z"></path>
    <path class="cls-11" d="M64.2,107.6c-1.4-1.4-4.1-2.1-6-1.6l-4.9,1.3c-1.9.5-3.9,2.5-4.4,4.4l-1.3,4.9c-.5,1.9.2,4.6,1.6,6l3.6,3.6c1.4,1.4,4.1,2.1,6,1.6l4.9-1.3c1.9-.5,3.9-2.5,4.4-4.4l1.3-4.9c.5-1.9-.2-4.6-1.6-6l-3.6-3.6Z"></path>
    <path class="cls-17" d="M100.7,82.5c2,0,3.1-.2,4.9-.6,1.8-.5,3,.2,2.7,1.5,0,.4-.1.7-.2,1.1l1.2-.3c1.9-.5,3.9-2.5,4.4-4.4l1.3-4.9c.5-1.9-.2-4.6-1.6-6l-3.6-3.6c-1.4-1.4-4.1-2.1-6-1.6l-4.9,1.3c-1.9.5-3.9,2.5-4.4,4.4l-1.3,4.9c-.5,1.9.2,4.6,1.6,6l1.2,1.2c.1,0,.3,0,.4.1,1.2.4,2.3.9,4.3.9Z"></path>
    <path class="cls-13" d="M92.4,133.1c1.9-.5,3.9-2.5,4.4-4.4l1.3-4.9c.5-1.9-.2-4.6-1.6-6l-3.6-3.6c-1.4-1.4-4.1-2.1-6-1.6l-4.9,1.3c-1.9.5-3.9,2.5-4.4,4.4l-1.3,4.9c-.5,1.9.2,4.6,1.6,6l3.6,3.6c1.4,1.4,4.1,2.1,6,1.6l4.9-1.3Z"></path>
    <path class="cls-20" d="M50.8,101.1l4.9-1.3c1.9-.5,3.9-2.5,4.4-4.4l1.3-4.9c.5-1.9-.2-4.6-1.6-6l-3.6-3.6c-1.4-1.4-4.1-2.1-6-1.6l-4.9,1.3c-1.9.5-3.9,2.5-4.4,4.4l-1.3,4.9c-.5,1.9.2,4.6,1.6,6l3.6,3.6c1.4,1.4,4.1,2.1,6,1.6Z"></path>
    <path class="cls-16" d="M47.2,65.4c1.7-.4,3.4-2.2,3.8-3.8.4-1.7-.2-4-1.4-5.2-1.2-1.2-3.6-1.8-5.2-1.4-1.7.4-3.4,2.2-3.8,3.8-.4,1.7.2,4,1.4,5.2,1.2,1.2,3.6,1.8,5.2,1.4Z"></path>
    <path class="cls-19" d="M41.3,132.7c-1.4-1.4-4.1-2.1-6-1.6l-1.9.5c-1.9.5-3.9,2.5-4.4,4.4l-.5,1.9c-.5,1.9.2,4.6,1.6,6l1.4,1.4c1.4,1.4,4.1,2.1,6,1.6l1.9-.5c1.9-.5,3.9-2.5,4.4-4.4l.5-1.9c.5-1.9-.2-4.6-1.6-6l-1.4-1.4Z"></path>
    <path class="cls-15" d="M64.8,42.7c1.4,1.4,4.1,2.1,6,1.6l1.9-.5c1.9-.5,3.9-2.5,4.4-4.4l.5-1.9c.5-1.9-.2-4.6-1.6-6l-1.4-1.4c-1.4-1.4-4.1-2.1-6-1.6l-1.9.5c-1.9.5-3.9,2.5-4.4,4.4l-.5,1.9c-.5,1.9.2,4.6,1.6,6l1.4,1.4Z"></path>
    <path class="cls-22" d="M26.8,80.6l-1.4-1.4c-1.4-1.4-4.1-2.1-6-1.6l-1.9.5c-1.9.5-3.9,2.5-4.4,4.4l-.5,1.9c-.5,1.9.2,4.6,1.6,6l1.4,1.4c1.4,1.4,4.1,2.1,6,1.6l1.9-.5c1.9-.5,3.9-2.5,4.4-4.4l.5-1.9c.5-1.9-.2-4.6-1.6-6Z"></path>
    <path class="cls-6" d="M99.5,150.4c-1.4-1.4-4.1-2.1-6-1.6l-1.9.5c-1.9.5-3.9,2.5-4.4,4.4l-.5,1.9c-.5,1.9.2,4.6,1.6,6l1.4,1.4c1.4,1.4,4.1,2.1,6,1.6l1.9-.5c1.9-.5,3.9-2.5,4.4-4.4l.5-1.9c.5-1.9-.2-4.6-1.6-6l-1.4-1.4Z"></path>
    <path class="cls-23" d="M129.5,43c-1.4-1.4-4.1-2.1-6-1.6l-1.9.5c-1.9.5-3.9,2.5-4.4,4.4l-.5,1.9c-.5,1.9.2,4.6,1.6,6l1.4,1.4c1.4,1.4,4.1,2.1,6,1.6l1.9-.5c1.9-.5,3.9-2.5,4.4-4.4l.5-1.9c.5-1.9-.2-4.6-1.6-6l-1.4-1.4Z"></path>
    <path class="cls-21" d="M117.1,127.7c-1.7.4-3.4,2.2-3.8,3.8-.4,1.7.2,4,1.4,5.2s3.6,1.8,5.2,1.4c1.7-.4,3.4-2.2,3.8-3.8.4-1.7-.2-4-1.4-5.2-1.2-1.2-3.6-1.8-5.2-1.4Z"></path>
    <path class="cls-5" d="M120.1,104.8l1.3-4.9c.5-1.9-.2-4.6-1.6-6l-3.6-3.6c-1.4-1.4-4.1-2.1-6-1.6h-.3c.9.7,1.8,1.1,1.9,1.6,0,.9-.5,1.3-2.8,2.4-2.4,1.1-2.7,1.5-4.7,4.3-1.6,2.2-2.8,1.8-4.3,1.2l-.3,1.1c-.5,1.9.2,4.6,1.6,6l3.6,3.6c1.4,1.4,4.1,2.1,6,1.6l4.9-1.3c1.9-.5,3.9-2.5,4.4-4.4Z"></path>
    <path class="cls-3" d="M88.5,93.9c-.3-1.2-.8-2-2.3-3-1.5-.9-1.9-2.4-.3-3,0,0,0,0,0,0-1.5-1.2-3.9-1.8-5.6-1.3l-1.9.5c-1.9.5-3.9,2.5-4.4,4.4l-.5,1.9c-.5,1.9.2,4.6,1.6,6l1.4,1.4c1.4,1.4,4.1,2.1,6,1.6l1.9-.5c1.9-.5,3.9-2.5,4.4-4.4-.9-.7,0-2.6-.3-3.8Z"></path>
    <path class="cls-4" d="M150.5,97.9l-1.4-1.4c-1.4-1.4-4.1-2.1-6-1.6l-1.9.5c-1.9.5-3.9,2.5-4.4,4.4l-.5,1.9c-.5,1.9.2,4.6,1.6,6l1.4,1.4c1.4,1.4,4.1,2.1,6,1.6l1.9-.5c1.9-.5,3.9-2.5,4.4-4.4l.5-1.9c.5-1.9-.2-4.6-1.6-6Z"></path>
  </g>
  <g>
    <path class="cls-1" d="M229.9,88.8c1-3.6,2.6-6.4,2.6-6.4h3.1v10.5h-26.2l-.7-3.6,18.1-25.5v-.2h-10.7c-1,3.6-2.7,6-2.7,6h-3.1v-10h24.8l.7,3.6-18.1,25.5v.2h12.1Z"></path>
    <path class="cls-1" d="M242.5,73.1h-3.3l-.5-2.1s2.4-1.9,6.4-1.9,4,1,4,1v15.2c0,2.6,1.4,4,3.6,4s4.3-2.4,4.3-2.4v-13.8h-3.3l-.5-2.1s2.4-1.9,6.4-1.9,4,1,4,1v19.1h3.3l.5,2.1s-2.4,1.9-6.4,1.9-3.8-1-3.8-1v-2.4h-.2s-2.4,3.6-7.1,3.6-7.4-3.1-7.4-7.6v-12.6Z"></path>
    <path class="cls-1" d="M269.7,81.6c0-7.1,5.5-12.6,12.6-12.6s9.1,3.1,9.1,6.7-.7,3.1-.7,3.1h-4.5l-1-6.2s-.7-.2-2.1-.2c-3.3,0-6.2,2.9-6.2,8.6s3.3,8.6,7.1,8.6,6.2-2.9,6.2-2.9l1.7,1.9s-3.3,4.8-9.8,4.8-12.4-5-12.4-11.7Z"></path>
    <path class="cls-1" d="M297.5,60.7h-3.3l-.5-2.1s2.4-1.9,6.4-1.9,4,1,4,1v21.7l3.3-.5,4.8-6c-1.4-.5-2.6-1.4-2.6-1.4l.5-1.9h9.1l.5,1.9s-1.4,1-3.6,1.4l-5,6.4c1.7,3.1,4.3,7.4,6.9,10.2,1.9.5,3.1,1.4,3.1,1.4l-.5,1.9h-8.6c-2.4-3.3-4.5-7.6-6-10.7h-1.9v7.4c1.7.7,2.4,1.4,2.4,1.4l-.5,1.9h-11.4l-.5-1.9s1.2-1,3.3-1.4v-28.8Z"></path>
    <path class="cls-1" d="M329.7,81.4c0,4.8,3.3,8.1,7.1,8.1s6-2.6,6-2.6l1.7,1.9s-3.1,4.5-9.5,4.5-12.4-5-12.4-11.9,5.5-12.4,11.9-12.4,10.7,4.3,10.7,11.2v1.2h-15.5ZM329.9,78.1h8.6c-.2-4-1.9-5.7-4-5.7s-4,2.1-4.5,5.7Z"></path>
    <path class="cls-1" d="M358.3,89.5c2.6.5,3.8,1.4,3.8,1.4l-.5,1.9h-12.9l-.5-1.9s1.2-1,3.3-1.4v-16.2h-3.3l-.5-2.1s2.4-1.9,6.4-1.9,3.8,1,3.8,1v3.8h.2s1.9-5,6.4-5,2.4.5,2.4.5v5.2h-6.7l-2.1,2.6v12.1Z"></path>
    <path class="cls-1" d="M393,89.5c1.7.7,2.4,1.4,2.4,1.4l-.5,1.9h-10.5l-.5-1.9s.7-.7,2.4-1.4v-12.6c0-2.6-1.2-3.8-3.1-3.8s-4,2.4-4,2.4v14.1c1.7.7,2.4,1.4,2.4,1.4l-.5,1.9h-11.4l-.5-1.9s1.2-1,3.3-1.4v-16.2h-3.3l-.5-2.1s2.4-1.9,6.4-1.9,3.8,1,3.8,1v2.4h.2s2.6-3.6,6.9-3.6,6.4,3.6,6.4,3.6h.2s2.6-3.6,7.1-3.6,6.9,2.6,6.9,7.6v12.9c2.1.5,3.3,1.4,3.3,1.4l-.5,1.9h-11.4l-.5-1.9s.7-.7,2.4-1.4v-12.6c0-2.6-1.2-3.8-3.1-3.8s-4,2.4-4,2.4v14.1Z"></path>
    <path class="cls-1" d="M420,72.6l-.5,5.2h-4.8s-.7-.7-.7-2.4c0-3.1,3.3-6.4,9.5-6.4s10.2,3.3,10.2,8.1v11.9h3.3l.5,2.1s-2.6,1.9-6.4,1.9-3.8-1-3.8-1v-2.6h-.2s-2.4,3.8-7.1,3.8-7.4-2.9-7.4-6.7,3.3-7.1,10.2-7.1,4.3.5,4.3.5v-3.6c0-2.6-1.7-4.3-4.3-4.3s-2.9.5-2.9.5ZM427.1,86.6v-4h-2.4c-3.8,0-5.5,1.7-5.5,3.6s1.2,3.1,3.3,3.1,4.5-2.6,4.5-2.6Z"></path>
    <path class="cls-1" d="M449,75.4v14.1c1.7.7,2.4,1.4,2.4,1.4l-.5,1.9h-11.4l-.5-1.9s1.2-1,3.3-1.4v-16.2h-3.3l-.5-2.1s2.4-1.9,6.4-1.9,3.8,1,3.8,1v2.4h.2s2.4-3.6,7.1-3.6,7.4,3.1,7.4,7.6v12.9c2.1.5,3.3,1.4,3.3,1.4l-.5,1.9h-11.4l-.5-1.9s.7-.7,2.4-1.4v-12.4c0-2.6-1.4-4-3.6-4s-4.3,2.4-4.3,2.4Z"></path>
    <path class="cls-1" d="M482.8,81.6h2.9s1.9,3.1,2.4,7.4c0,0,1.8,1,4.3,1,3.6,0,6-2.4,6-5.2,0-6.7-16-5.7-16-16.4s4.3-9.3,11.7-9.3,10.2,1.9,10.2,1.9l-.7,9.3h-2.9s-1.7-2.6-2.4-7.1c0,0-1.4-.7-3.8-.7s-5,1.9-5,4.3c0,6.4,16.2,6.2,16.2,16.7s-4.5,10-12.9,10-10.5-2.1-10.5-2.1l.5-9.5Z"></path>
    <path class="cls-1" d="M514,63.5c-1,3.8-2.9,6.2-2.9,6.2l-2.9-.5.5-9.8h28.3l.5,9.8-2.9.5s-1.9-2.4-2.9-6.2h-5.2v25.7c2.1.5,3.6,1.4,3.6,1.4l-.5,2.1h-13.6l-.5-2.1s1.4-1,3.6-1.4v-25.7h-5.2Z"></path>
    <path class="cls-1" d="M551.4,63.5v10.5l9.3-1.2v5.5l-9.3-1.2v11.7h9.3c1.2-3.3,2.9-5.5,2.9-5.5l2.9.5-.5,9.1h-25l-.5-2.1s1.4-1,3.6-1.4v-26.2c-2.1-.5-3.6-1.4-3.6-1.4l.5-2.1h24.5l.5,9.3-2.9.5s-1.7-2.1-2.9-5.7h-8.8Z"></path>
    <path class="cls-1" d="M610,59.5l.5,2.1s-1.4,1-3.6,1.4v26.2c2.1.5,3.6,1.4,3.6,1.4l-.5,2.1h-13.3l-.5-2.1s1.4-1,3.3-1.4v-17.4l.5-3.1h-.2l-9.1,20h-4l-9.1-20h-.2l.5,3.1v17.4c2.1.5,3.6,1.4,3.6,1.4l-.5,2.1h-10.2l-.5-2.1s1.4-1,3.6-1.5v-26.2c-2.1-.5-3.6-1.4-3.6-1.4l.5-2.1h11l8.1,17.9.5,2.6h.2l9.3-20.5h10.2Z"></path>
    <path class="cls-1" d="M214.8,110.2c-2-.4-3.1-1.4-3.1-1.4l.7-1.9h11.6v1.9s-1.5,1-3.7,1.4l-4.2,26.7h9.6c1.4-3.3,3.4-5.6,3.4-5.6l2.1.3-1.8,8.6h-22.3v-1.9s1.4-1,3.6-1.4l4.2-26.7Z"></path>
    <path class="cls-1" d="M252.1,134.6l1.2,1.6s-3.8,4.4-9.5,4.4-9.4-4.7-9.4-10.6,6.3-13.7,13.1-13.7,7.5,2.7,7.5,5.8-3.6,8.2-15.1,8.5c0,4,2.6,6.7,6,6.7s6.2-2.7,6.2-2.7ZM240.2,128.1c4.7-.1,10-1.9,10-6.2s-1-2.6-2.7-2.6c-3.1,0-6.2,2.8-7.3,8.9Z"></path>
    <path class="cls-1" d="M277.5,136.9c1.9-.2,3.6-1.8,3.6-1.8l1.1,1.7s-2.5,3.6-6.6,3.6-3.3-1.3-3.3-1.3l.3-2.3h-.2s-3,3.8-7.3,3.8-7.3-3.8-7.3-9.8c0-8.9,6.2-14.5,12.1-14.5s5.3,2.4,5.3,2.4h.2l1.4-1.9h3.8l-3.2,20.1ZM274.2,126.2c0-.7.1-1.2.1-1.8,0-3.3-1.8-5-4-5-3.2,0-7.1,3.8-7.1,11.1s2,6.7,4.2,6.7,5.4-3.3,5.4-3.3l1.2-7.8Z"></path>
    <path class="cls-1" d="M300.9,136.8h-.2s-3.1,3.8-7.7,3.8-7.9-3.7-7.9-9.8c0-8.8,6.3-14.5,12.7-14.5s6,2.9,6,2.9h.2v-2.7s1.3-8.8,1.3-8.8h-3.5v-1.9c0,0,2.2-1.9,5.8-1.9s3.2.9,3.2.9l-5.1,32.1c1.9-.2,3.6-1.8,3.6-1.8l1.1,1.7s-2.5,3.6-6.6,3.6-3.3-1.3-3.3-1.3l.3-2.3ZM302.4,126.1c0-.6.1-1.2.1-1.7,0-3.2-1.7-4.9-4.4-4.9s-7.5,3.8-7.5,11.1,2,6.8,4.7,6.8,5.8-3.1,5.8-3.1l1.3-8.1Z"></path>
    <path class="cls-1" d="M330.8,134.6l1.2,1.6s-3.8,4.4-9.5,4.4-9.4-4.7-9.4-10.6,6.3-13.7,13.1-13.7,7.5,2.7,7.5,5.8-3.6,8.2-15.1,8.5c0,4,2.6,6.7,6,6.7s6.2-2.7,6.2-2.7ZM318.9,128.1c4.7-.1,10-1.9,10-6.2s-1-2.6-2.7-2.6c-3.1,0-6.2,2.8-7.3,8.9Z"></path>
    <path class="cls-1" d="M345.3,121s2.6-4.6,6.7-4.6,2.4.6,2.4.6l-.7,4.1h-6.3l-2.4,2.6-2.6,16.4h-5l3.1-19.8h-3.5v-1.9c0,0,1.9-1.9,5.4-1.9s3.1.9,3.1.9l-.5,3.5h.2Z"></path>
    <path class="cls-1" d="M366.2,134.1c0-3.7-10.3-4.7-10.3-10.8s3.6-6.9,9.6-6.9,7.1,1.9,7.1,4-1.2,3.5-1.2,3.5l-3.2.2-.4-4.8s-1-.4-2.4-.4c-2.8,0-4.3,1.6-4.3,3.3,0,3.8,10.6,4,10.6,10.7s-4,7.7-10.5,7.7-7.5-2.4-7.5-5,1.1-3.2,1.1-3.2h3.2v5c.1,0,1.3.6,3.2.6,3.1,0,4.9-1.9,4.9-4Z"></path>
    <path class="cls-1" d="M381.2,107.7h-3.5v-1.9c0,0,2.2-1.9,5.8-1.9s3.1.9,3.1.9l-2,12.6-.8,2.7h.2s3.2-3.8,7.8-3.8,5.8,2.2,5.8,6,0,1.1-.1,1.7l-2,13c1.9-.2,3.7-1.8,3.7-1.8l1.1,1.7s-2.5,3.6-6.6,3.6-3.5-1.3-3.5-1.3l2.4-15c0-.4,0-.8,0-1.1,0-2.2-1.2-3.3-3.2-3.3-3,0-5.6,3.1-5.6,3.1l-2.8,17.4h-5l5.1-32.4Z"></path>
    <path class="cls-1" d="M406.9,120.4h-3.5v-1.9c0,0,2.2-1.9,5.8-1.9s3.1.9,3.1.9l-3.1,19.5c1.9-.2,3.7-1.8,3.7-1.8l1.1,1.7s-2.5,3.6-6.6,3.6-3.5-1.3-3.5-1.3l3-18.8ZM411,106.6c2,0,3.3,1.4,3.3,3.2s-1.4,3.2-3.3,3.2-3.3-1.4-3.3-3.2,1.4-3.2,3.3-3.2Z"></path>
    <path class="cls-1" d="M425.4,120.2h.2s3.2-3.8,7.8-3.8,7.9,3.7,7.9,9.8c0,8.8-6.3,14.5-12.7,14.5s-5.9-2.9-5.9-2.9h-.2v2.7l-1.3,8.1c2,.5,3.5,1.4,3.5,1.4l-.5,1.6h-8.4l5-31.2h-3.5v-1.9c0,0,1.9-1.9,5.4-1.9s3.2.9,3.2.9l-.4,2.7ZM424,130.9c0,.6-.1,1.1-.1,1.7,0,3.2,1.7,5,4.5,5s7.4-3.8,7.4-11.1-2-6.8-4.6-6.8-5.9,3.1-5.9,3.1l-1.3,8.1Z"></path>
    <path class="cls-1" d="M467.2,127.8v8.8c2.6.5,4.3,1.4,4.3,1.4l-.5,2.1h-14.3l-.5-2.1s1.4-1,3.6-1.4v-26.2c-2.1-.5-3.6-1.4-3.6-1.4l.5-2.1h13.6c9.1,0,13.3,4.3,13.3,10.5s-4.3,10.5-13.3,10.5h-3.1ZM469.5,124.2c3.6,0,6.2-2.6,6.2-6.9s-2.6-6.9-6.2-6.9h-2.4v13.8h2.4Z"></path>
    <path class="cls-1" d="M496.5,136.8c2.6.5,3.8,1.4,3.8,1.4l-.5,1.9h-12.9l-.5-1.9s1.2-1,3.3-1.4v-16.2h-3.3l-.5-2.1s2.4-1.9,6.4-1.9,3.8,1,3.8,1v3.8h.2s1.9-5,6.4-5,2.4.5,2.4.5v5.2h-6.7l-2.1,2.6v12.1Z"></path>
    <path class="cls-1" d="M520.3,140.6c-7.6,0-12.6-5-12.6-11.9s5.2-12.4,12.6-12.4,12.6,5,12.6,11.9-5.2,12.4-12.6,12.4ZM520.3,137.6c2.9,0,5.5-2.6,5.5-9.1s-2.6-9.1-5.5-9.1-5.5,2.6-5.5,9.1,2.6,9.1,5.5,9.1Z"></path>
    <path class="cls-1" d="M548.1,116.4c2.4,0,4.3.7,4.3.7,0,0,.8-4.3,5.5-4.3s3.1.8,3.1.8v4.2h-6.7v.2s4.5,1.5,4.5,6.7-3.6,8.3-10.7,8.3-4.5-.7-4.5-.7v3.6h7.9c6.7,0,9.8,3.1,9.8,7.4s-4,8.8-12.6,8.8-12.4-3.6-12.4-7.4,1.9-4.5,4.5-5.5v-.2s-2.4-1.1-2.4-3.8,2.6-4,2.6-4v-.2s-3.6-1.4-3.6-6.2,3.6-8.3,10.7-8.3ZM546,140.9c-1.2,0-2.4-.2-2.4-.2,0,0-1.4,1.2-1.4,3.3s2.1,4.5,7.1,4.5,6.9-1.9,6.9-4.3-1.4-3.3-5.2-3.3h-5ZM548.1,129.9c2.4,0,4-1.7,4-5.2s-1.7-5.2-4-5.2-4,1.7-4,5.2,1.7,5.2,4,5.2Z"></path>
    <path class="cls-1" d="M572.7,136.8c2.6.5,3.8,1.4,3.8,1.4l-.5,1.9h-12.9l-.5-1.9s1.2-1,3.3-1.4v-16.2h-3.3l-.5-2.1s2.4-1.9,6.4-1.9,3.8,1,3.8,1v3.8h.2s1.9-5,6.4-5,2.4.5,2.4.5v5.2h-6.7l-2.1,2.6v12.1Z"></path>
    <path class="cls-1" d="M591.5,119.9l-.5,5.2h-4.8s-.7-.7-.7-2.4c0-3.1,3.3-6.4,9.5-6.4s10.2,3.3,10.2,8.1v11.9h3.3l.5,2.1s-2.6,1.9-6.4,1.9-3.8-1-3.8-1v-2.6h-.2s-2.4,3.8-7.1,3.8-7.4-2.9-7.4-6.7,3.3-7.1,10.2-7.1,4.3.5,4.3.5v-3.6c0-2.6-1.7-4.3-4.3-4.3s-2.9.5-2.9.5ZM598.6,134v-4h-2.4c-3.8,0-5.5,1.7-5.5,3.6s1.2,3.1,3.3,3.1,4.5-2.6,4.5-2.6Z"></path>
    <path class="cls-1" d="M634.4,136.8c1.7.7,2.4,1.4,2.4,1.4l-.5,1.9h-10.5l-.5-1.9s.7-.7,2.4-1.4v-12.6c0-2.6-1.2-3.8-3.1-3.8s-4,2.4-4,2.4v14.1c1.7.7,2.4,1.4,2.4,1.4l-.5,1.9h-11.4l-.5-1.9s1.2-1,3.3-1.4v-16.2h-3.3l-.5-2.1s2.4-1.9,6.4-1.9,3.8,1,3.8,1v2.4h.2s2.6-3.6,6.9-3.6,6.4,3.6,6.4,3.6h.2s2.6-3.6,7.1-3.6,6.9,2.6,6.9,7.6v12.9c2.1.5,3.3,1.4,3.3,1.4l-.5,1.9h-11.4l-.5-1.9s.7-.7,2.4-1.4v-12.6c0-2.6-1.2-3.8-3.1-3.8s-4,2.4-4,2.4v14.1Z"></path>
  </g>
</svg>
